<mxfile host="Electron" modified="2024-03-04T10:54:43.995Z" agent="Mozilla/5.0 (Windows NT 10.0; Win64; x64) AppleWebKit/537.36 (KHTML, like Gecko) draw.io/22.1.18 Chrome/120.0.6099.199 Electron/28.1.2 Safari/537.36" etag="hVID9d545gk60kleO3gs" version="22.1.18" type="device">
  <diagram name="Page-1" id="fc2ac565-0d4e-3f0d-88b0-a54af1634ed7">
    <mxGraphModel dx="1855" dy="916" grid="1" gridSize="10" guides="1" tooltips="1" connect="0" arrows="1" fold="1" page="1" pageScale="1.5" pageWidth="1169" pageHeight="827" background="none" math="0" shadow="0">
      <root>
        <mxCell id="0" style=";html=1;" />
        <mxCell id="1" style=";html=1;" parent="0" />
        <mxCell id="75" value="Sprint 1 5.2 - 4.3" style="align=left;strokeColor=#CCCCCC;html=1;" parent="1" vertex="1">
          <mxGeometry x="297.0000000000003" y="149.99999999999977" width="319.9999999999997" height="20.000000000000014" as="geometry" />
        </mxCell>
        <mxCell id="80" value="Risk management table" style="align=left;strokeColor=#CCCCCC;html=1;" parent="1" vertex="1">
          <mxGeometry x="297" y="170.00000000000023" width="320" height="20" as="geometry" />
        </mxCell>
        <mxCell id="85" value="Communication management table" style="align=left;strokeColor=#CCCCCC;html=1;" parent="1" vertex="1">
          <mxGeometry x="296.9999999999999" y="190.00000000000023" width="320.0000000000001" height="20" as="geometry" />
        </mxCell>
        <mxCell id="90" value="Prototype 1" style="align=left;strokeColor=#CCCCCC;html=1;" parent="1" vertex="1">
          <mxGeometry x="296.9999999999999" y="210.00000000000045" width="320.0000000000001" height="20" as="geometry" />
        </mxCell>
        <mxCell id="95" value="Prototype 2" style="align=left;strokeColor=#CCCCCC;html=1;" parent="1" vertex="1">
          <mxGeometry x="297.0000000000006" y="230.00000000000068" width="319.9999999999994" height="20" as="geometry" />
        </mxCell>
        <mxCell id="100" value="Sprintrapport" style="align=left;strokeColor=#CCCCCC;html=1;" parent="1" vertex="1">
          <mxGeometry x="297.0000000000006" y="250.00000000000057" width="319.9999999999994" height="20" as="geometry" />
        </mxCell>
        <mxCell id="2" value="Task Name" style="strokeWidth=1;fontStyle=0;html=1;" parent="1" vertex="1">
          <mxGeometry x="297" y="130" width="320" height="20" as="geometry" />
        </mxCell>
        <mxCell id="67c90442a009f359-289" value="Sprint 2, 4.3 - 18.3" style="align=left;strokeColor=#CCCCCC;html=1;" parent="1" vertex="1">
          <mxGeometry x="297.0000000000006" y="270.00000000000057" width="319.9999999999994" height="20" as="geometry" />
        </mxCell>
        <mxCell id="67c90442a009f359-290" value="Prototype 3" style="align=left;strokeColor=#CCCCCC;html=1;" parent="1" vertex="1">
          <mxGeometry x="297.0000000000006" y="290.00000000000057" width="319.9999999999994" height="20" as="geometry" />
        </mxCell>
        <mxCell id="67c90442a009f359-291" value="" style="align=left;strokeColor=#CCCCCC;html=1;" parent="1" vertex="1">
          <mxGeometry x="617" y="150" width="413" height="20" as="geometry" />
        </mxCell>
        <mxCell id="4" value="Jan" style="strokeWidth=1;fontStyle=0;html=1;" parent="1" vertex="1">
          <mxGeometry x="617" y="130" width="93" height="20" as="geometry" />
        </mxCell>
        <mxCell id="67c90442a009f359-278" value="Feb" style="strokeWidth=1;fontStyle=0;html=1;" parent="1" vertex="1">
          <mxGeometry x="710" y="130" width="93" height="20" as="geometry" />
        </mxCell>
        <mxCell id="67c90442a009f359-279" value="Mar" style="strokeWidth=1;fontStyle=0;html=1;" parent="1" vertex="1">
          <mxGeometry x="800" y="130" width="130" height="20" as="geometry" />
        </mxCell>
        <mxCell id="67c90442a009f359-280" value="Apr" style="strokeWidth=1;fontStyle=0;html=1;" parent="1" vertex="1">
          <mxGeometry x="919" y="130" width="120" height="20" as="geometry" />
        </mxCell>
        <mxCell id="67c90442a009f359-292" value="" style="align=left;strokeColor=#CCCCCC;html=1;" parent="1" vertex="1">
          <mxGeometry x="617" y="170" width="413" height="20" as="geometry" />
        </mxCell>
        <mxCell id="67c90442a009f359-293" value="" style="align=left;strokeColor=#CCCCCC;html=1;" parent="1" vertex="1">
          <mxGeometry x="617" y="190" width="413" height="20" as="geometry" />
        </mxCell>
        <mxCell id="67c90442a009f359-294" value="" style="align=left;strokeColor=#CCCCCC;html=1;" parent="1" vertex="1">
          <mxGeometry x="617" y="210" width="413" height="20" as="geometry" />
        </mxCell>
        <mxCell id="67c90442a009f359-295" value="" style="align=left;strokeColor=#CCCCCC;html=1;" parent="1" vertex="1">
          <mxGeometry x="617" y="230" width="413" height="20" as="geometry" />
        </mxCell>
        <mxCell id="67c90442a009f359-296" value="" style="align=left;strokeColor=#CCCCCC;html=1;" parent="1" vertex="1">
          <mxGeometry x="617" y="250" width="413" height="20" as="geometry" />
        </mxCell>
        <mxCell id="67c90442a009f359-297" value="" style="align=left;strokeColor=#CCCCCC;html=1;" parent="1" vertex="1">
          <mxGeometry x="617" y="270" width="413" height="20" as="geometry" />
        </mxCell>
        <mxCell id="67c90442a009f359-298" value="" style="align=left;strokeColor=#CCCCCC;html=1;" parent="1" vertex="1">
          <mxGeometry x="617" y="290" width="413" height="20" as="geometry" />
        </mxCell>
        <mxCell id="67c90442a009f359-299" value="" style="whiteSpace=wrap;html=1;strokeWidth=2;fillColor=#CCCCCC;gradientColor=none;fontSize=14;align=center;strokeColor=#999999;" parent="1" vertex="1">
          <mxGeometry x="721.5" y="150" width="88.5" height="20" as="geometry" />
        </mxCell>
        <mxCell id="6Q8PuM3xzfXMs_AKLG9W-100" value="Bruke responsivt design" style="align=left;strokeColor=#CCCCCC;html=1;" vertex="1" parent="1">
          <mxGeometry x="297" y="310" width="319.9999999999994" height="20" as="geometry" />
        </mxCell>
        <mxCell id="6Q8PuM3xzfXMs_AKLG9W-101" value="Klar og engasjerende overskrift" style="align=left;strokeColor=#CCCCCC;html=1;" vertex="1" parent="1">
          <mxGeometry x="297" y="330" width="319.9999999999994" height="20" as="geometry" />
        </mxCell>
        <mxCell id="6Q8PuM3xzfXMs_AKLG9W-102" value="Medlemsplaner og prising" style="align=left;strokeColor=#CCCCCC;html=1;" vertex="1" parent="1">
          <mxGeometry x="297" y="350" width="319.9999999999994" height="20" as="geometry" />
        </mxCell>
        <mxCell id="6Q8PuM3xzfXMs_AKLG9W-103" value="Sprintrapport" style="align=left;strokeColor=#CCCCCC;html=1;" vertex="1" parent="1">
          <mxGeometry x="297" y="410" width="319.9999999999994" height="20" as="geometry" />
        </mxCell>
        <mxCell id="6Q8PuM3xzfXMs_AKLG9W-104" value="Teste pÃ¥ ulike enheter" style="align=left;strokeColor=#CCCCCC;html=1;" vertex="1" parent="1">
          <mxGeometry x="297" y="390" width="319.9999999999994" height="20" as="geometry" />
        </mxCell>
        <mxCell id="6Q8PuM3xzfXMs_AKLG9W-105" value="Legge til kontaktinformasjonsskjema" style="align=left;strokeColor=#CCCCCC;html=1;" vertex="1" parent="1">
          <mxGeometry x="297" y="370" width="319.9999999999994" height="20" as="geometry" />
        </mxCell>
        <mxCell id="6Q8PuM3xzfXMs_AKLG9W-107" value="Fasiliteter" style="align=left;strokeColor=#CCCCCC;html=1;" vertex="1" parent="1">
          <mxGeometry x="297" y="450" width="319.9999999999994" height="20" as="geometry" />
        </mxCell>
        <mxCell id="6Q8PuM3xzfXMs_AKLG9W-108" value="Sprint 3, 18.3 - 1.4" style="align=left;strokeColor=#CCCCCC;html=1;" vertex="1" parent="1">
          <mxGeometry x="297" y="430" width="319.9999999999994" height="20" as="geometry" />
        </mxCell>
        <mxCell id="6Q8PuM3xzfXMs_AKLG9W-109" value="Om oss seksjon" style="align=left;strokeColor=#CCCCCC;html=1;" vertex="1" parent="1">
          <mxGeometry x="297" y="470" width="319.9999999999994" height="20" as="geometry" />
        </mxCell>
        <mxCell id="6Q8PuM3xzfXMs_AKLG9W-110" value="Plantegning" style="align=left;strokeColor=#CCCCCC;html=1;" vertex="1" parent="1">
          <mxGeometry x="297" y="530" width="319.9999999999994" height="20" as="geometry" />
        </mxCell>
        <mxCell id="6Q8PuM3xzfXMs_AKLG9W-111" value="Kundeanmeldelser" style="align=left;strokeColor=#CCCCCC;html=1;" vertex="1" parent="1">
          <mxGeometry x="297" y="510" width="319.9999999999994" height="20" as="geometry" />
        </mxCell>
        <mxCell id="6Q8PuM3xzfXMs_AKLG9W-112" value="Personvern" style="align=left;strokeColor=#CCCCCC;html=1;" vertex="1" parent="1">
          <mxGeometry x="297" y="490" width="319.9999999999994" height="20" as="geometry" />
        </mxCell>
        <mxCell id="6Q8PuM3xzfXMs_AKLG9W-113" value="Brukertesting" style="align=left;strokeColor=#CCCCCC;html=1;" vertex="1" parent="1">
          <mxGeometry x="297" y="570" width="319.9999999999994" height="20" as="geometry" />
        </mxCell>
        <mxCell id="6Q8PuM3xzfXMs_AKLG9W-114" value="Sprintrapport" style="align=left;strokeColor=#CCCCCC;html=1;" vertex="1" parent="1">
          <mxGeometry x="297" y="590" width="319.9999999999994" height="20" as="geometry" />
        </mxCell>
        <mxCell id="6Q8PuM3xzfXMs_AKLG9W-115" value="Brukertesting" style="align=left;strokeColor=#CCCCCC;html=1;" vertex="1" parent="1">
          <mxGeometry x="297" y="670" width="319.9999999999994" height="20" as="geometry" />
        </mxCell>
        <mxCell id="6Q8PuM3xzfXMs_AKLG9W-116" value="Overbevisende visuelt innhold" style="align=left;strokeColor=#CCCCCC;html=1;" vertex="1" parent="1">
          <mxGeometry x="297" y="650" width="319.9999999999994" height="20" as="geometry" />
        </mxCell>
        <mxCell id="6Q8PuM3xzfXMs_AKLG9W-117" value="Booking" style="align=left;strokeColor=#CCCCCC;html=1;" vertex="1" parent="1">
          <mxGeometry x="297" y="630" width="319.9999999999994" height="20" as="geometry" />
        </mxCell>
        <mxCell id="6Q8PuM3xzfXMs_AKLG9W-118" value="Sprint 4. 1.4 - 15.4" style="align=left;strokeColor=#CCCCCC;html=1;" vertex="1" parent="1">
          <mxGeometry x="297" y="610" width="319.9999999999994" height="20" as="geometry" />
        </mxCell>
        <mxCell id="6Q8PuM3xzfXMs_AKLG9W-119" value="Lokasjonsinformasjon" style="align=left;strokeColor=#CCCCCC;html=1;" vertex="1" parent="1">
          <mxGeometry x="297" y="550" width="319.9999999999994" height="20" as="geometry" />
        </mxCell>
        <mxCell id="6Q8PuM3xzfXMs_AKLG9W-120" value="Sprintrapport" style="align=left;strokeColor=#CCCCCC;html=1;" vertex="1" parent="1">
          <mxGeometry x="297" y="690" width="319.9999999999994" height="20" as="geometry" />
        </mxCell>
        <mxCell id="6Q8PuM3xzfXMs_AKLG9W-121" value="" style="align=left;strokeColor=#CCCCCC;html=1;" vertex="1" parent="1">
          <mxGeometry x="617" y="330" width="413" height="20" as="geometry" />
        </mxCell>
        <mxCell id="6Q8PuM3xzfXMs_AKLG9W-122" value="" style="align=left;strokeColor=#CCCCCC;html=1;" vertex="1" parent="1">
          <mxGeometry x="617" y="390" width="413" height="20" as="geometry" />
        </mxCell>
        <mxCell id="6Q8PuM3xzfXMs_AKLG9W-123" value="" style="align=left;strokeColor=#CCCCCC;html=1;" vertex="1" parent="1">
          <mxGeometry x="617" y="470" width="413" height="20" as="geometry" />
        </mxCell>
        <mxCell id="6Q8PuM3xzfXMs_AKLG9W-124" value="" style="align=left;strokeColor=#CCCCCC;html=1;" vertex="1" parent="1">
          <mxGeometry x="617" y="410" width="413" height="20" as="geometry" />
        </mxCell>
        <mxCell id="6Q8PuM3xzfXMs_AKLG9W-125" value="" style="align=left;strokeColor=#CCCCCC;html=1;" vertex="1" parent="1">
          <mxGeometry x="617" y="530" width="413" height="20" as="geometry" />
        </mxCell>
        <mxCell id="6Q8PuM3xzfXMs_AKLG9W-126" value="" style="align=left;strokeColor=#CCCCCC;html=1;" vertex="1" parent="1">
          <mxGeometry x="617" y="310" width="413" height="20" as="geometry" />
        </mxCell>
        <mxCell id="6Q8PuM3xzfXMs_AKLG9W-127" value="" style="align=left;strokeColor=#CCCCCC;html=1;" vertex="1" parent="1">
          <mxGeometry x="617" y="350" width="413" height="20" as="geometry" />
        </mxCell>
        <mxCell id="6Q8PuM3xzfXMs_AKLG9W-128" value="" style="align=left;strokeColor=#CCCCCC;html=1;" vertex="1" parent="1">
          <mxGeometry x="617" y="370" width="413" height="20" as="geometry" />
        </mxCell>
        <mxCell id="6Q8PuM3xzfXMs_AKLG9W-129" value="" style="align=left;strokeColor=#CCCCCC;html=1;" vertex="1" parent="1">
          <mxGeometry x="617" y="550" width="413" height="20" as="geometry" />
        </mxCell>
        <mxCell id="6Q8PuM3xzfXMs_AKLG9W-130" value="" style="align=left;strokeColor=#CCCCCC;html=1;" vertex="1" parent="1">
          <mxGeometry x="617" y="510" width="413" height="20" as="geometry" />
        </mxCell>
        <mxCell id="6Q8PuM3xzfXMs_AKLG9W-131" value="" style="align=left;strokeColor=#CCCCCC;html=1;" vertex="1" parent="1">
          <mxGeometry x="617" y="490" width="413" height="20" as="geometry" />
        </mxCell>
        <mxCell id="6Q8PuM3xzfXMs_AKLG9W-132" value="" style="align=left;strokeColor=#CCCCCC;html=1;" vertex="1" parent="1">
          <mxGeometry x="617" y="430" width="413" height="20" as="geometry" />
        </mxCell>
        <mxCell id="6Q8PuM3xzfXMs_AKLG9W-133" value="" style="align=left;strokeColor=#CCCCCC;html=1;" vertex="1" parent="1">
          <mxGeometry x="617" y="570" width="413" height="20" as="geometry" />
        </mxCell>
        <mxCell id="6Q8PuM3xzfXMs_AKLG9W-134" value="" style="align=left;strokeColor=#CCCCCC;html=1;" vertex="1" parent="1">
          <mxGeometry x="617" y="450" width="413" height="20" as="geometry" />
        </mxCell>
        <mxCell id="6Q8PuM3xzfXMs_AKLG9W-135" value="" style="align=left;strokeColor=#CCCCCC;html=1;" vertex="1" parent="1">
          <mxGeometry x="617" y="630" width="413" height="20" as="geometry" />
        </mxCell>
        <mxCell id="6Q8PuM3xzfXMs_AKLG9W-136" value="" style="align=left;strokeColor=#CCCCCC;html=1;" vertex="1" parent="1">
          <mxGeometry x="617" y="610" width="413" height="20" as="geometry" />
        </mxCell>
        <mxCell id="6Q8PuM3xzfXMs_AKLG9W-137" value="" style="align=left;strokeColor=#CCCCCC;html=1;" vertex="1" parent="1">
          <mxGeometry x="617" y="590" width="413" height="20" as="geometry" />
        </mxCell>
        <mxCell id="6Q8PuM3xzfXMs_AKLG9W-138" value="" style="align=left;strokeColor=#CCCCCC;html=1;" vertex="1" parent="1">
          <mxGeometry x="617" y="690" width="413" height="20" as="geometry" />
        </mxCell>
        <mxCell id="6Q8PuM3xzfXMs_AKLG9W-139" value="" style="align=left;strokeColor=#CCCCCC;html=1;" vertex="1" parent="1">
          <mxGeometry x="617" y="670" width="413" height="20" as="geometry" />
        </mxCell>
        <mxCell id="6Q8PuM3xzfXMs_AKLG9W-140" value="" style="align=left;strokeColor=#CCCCCC;html=1;" vertex="1" parent="1">
          <mxGeometry x="617" y="650" width="413" height="20" as="geometry" />
        </mxCell>
        <mxCell id="6Q8PuM3xzfXMs_AKLG9W-142" value="" style="whiteSpace=wrap;html=1;strokeWidth=2;fillColor=#CCCCCC;gradientColor=none;fontSize=14;align=center;strokeColor=#999999;" vertex="1" parent="1">
          <mxGeometry x="811" y="270" width="59" height="20" as="geometry" />
        </mxCell>
        <mxCell id="6Q8PuM3xzfXMs_AKLG9W-158" value="" style="whiteSpace=wrap;html=1;strokeWidth=2;fillColor=#CCCCCC;gradientColor=none;fontSize=14;align=center;strokeColor=#999999;" vertex="1" parent="1">
          <mxGeometry x="869" y="430" width="50" height="20" as="geometry" />
        </mxCell>
        <mxCell id="6Q8PuM3xzfXMs_AKLG9W-162" value="" style="whiteSpace=wrap;html=1;strokeWidth=2;fillColor=#CCCCCC;gradientColor=none;fontSize=14;align=center;strokeColor=#999999;" vertex="1" parent="1">
          <mxGeometry x="870" y="510" width="49" height="20" as="geometry" />
        </mxCell>
        <mxCell id="6Q8PuM3xzfXMs_AKLG9W-165" value="" style="edgeStyle=orthogonalEdgeStyle;rounded=0;orthogonalLoop=1;jettySize=auto;html=1;" edge="1" parent="1" source="6Q8PuM3xzfXMs_AKLG9W-160" target="6Q8PuM3xzfXMs_AKLG9W-159">
          <mxGeometry relative="1" as="geometry">
            <mxPoint x="884" y="630" as="sourcePoint" />
            <mxPoint x="794" y="650" as="targetPoint" />
          </mxGeometry>
        </mxCell>
        <mxCell id="6Q8PuM3xzfXMs_AKLG9W-159" value="" style="whiteSpace=wrap;html=1;strokeWidth=2;fillColor=#CCCCCC;gradientColor=none;fontSize=14;align=center;strokeColor=#999999;" vertex="1" parent="1">
          <mxGeometry x="869" y="450" width="50" height="20" as="geometry" />
        </mxCell>
        <mxCell id="6Q8PuM3xzfXMs_AKLG9W-160" value="" style="whiteSpace=wrap;html=1;strokeWidth=2;fillColor=#CCCCCC;gradientColor=none;fontSize=14;align=center;strokeColor=#999999;" vertex="1" parent="1">
          <mxGeometry x="870" y="470" width="50" height="20" as="geometry" />
        </mxCell>
        <mxCell id="6Q8PuM3xzfXMs_AKLG9W-161" value="" style="whiteSpace=wrap;html=1;strokeWidth=2;fillColor=#CCCCCC;gradientColor=none;fontSize=14;align=center;strokeColor=#999999;" vertex="1" parent="1">
          <mxGeometry x="870" y="490" width="50" height="20" as="geometry" />
        </mxCell>
        <mxCell id="6Q8PuM3xzfXMs_AKLG9W-170" value="" style="whiteSpace=wrap;html=1;strokeWidth=2;fillColor=#CCCCCC;gradientColor=none;fontSize=14;align=center;strokeColor=#999999;" vertex="1" parent="1">
          <mxGeometry x="721.5" y="170" width="88.5" height="20" as="geometry" />
        </mxCell>
        <mxCell id="6Q8PuM3xzfXMs_AKLG9W-171" value="" style="whiteSpace=wrap;html=1;strokeWidth=2;fillColor=#CCCCCC;gradientColor=none;fontSize=14;align=center;strokeColor=#999999;" vertex="1" parent="1">
          <mxGeometry x="721.5" y="190" width="88.5" height="20" as="geometry" />
        </mxCell>
        <mxCell id="6Q8PuM3xzfXMs_AKLG9W-172" value="" style="whiteSpace=wrap;html=1;strokeWidth=2;fillColor=#CCCCCC;gradientColor=none;fontSize=14;align=center;strokeColor=#999999;" vertex="1" parent="1">
          <mxGeometry x="721.5" y="210" width="88.5" height="20" as="geometry" />
        </mxCell>
        <mxCell id="6Q8PuM3xzfXMs_AKLG9W-173" value="" style="whiteSpace=wrap;html=1;strokeWidth=2;fillColor=#CCCCCC;gradientColor=none;fontSize=14;align=center;strokeColor=#999999;" vertex="1" parent="1">
          <mxGeometry x="721.5" y="230" width="88.5" height="20" as="geometry" />
        </mxCell>
        <mxCell id="6Q8PuM3xzfXMs_AKLG9W-174" value="" style="whiteSpace=wrap;html=1;strokeWidth=2;fillColor=#CCCCCC;gradientColor=none;fontSize=14;align=center;strokeColor=#999999;" vertex="1" parent="1">
          <mxGeometry x="721.5" y="250" width="88.5" height="20" as="geometry" />
        </mxCell>
        <mxCell id="6Q8PuM3xzfXMs_AKLG9W-181" value="" style="whiteSpace=wrap;html=1;strokeWidth=2;fillColor=#CCCCCC;gradientColor=none;fontSize=14;align=center;strokeColor=#999999;" vertex="1" parent="1">
          <mxGeometry x="811" y="310" width="59" height="20" as="geometry" />
        </mxCell>
        <mxCell id="6Q8PuM3xzfXMs_AKLG9W-182" value="" style="whiteSpace=wrap;html=1;strokeWidth=2;fillColor=#CCCCCC;gradientColor=none;fontSize=14;align=center;strokeColor=#999999;" vertex="1" parent="1">
          <mxGeometry x="810" y="290" width="59" height="20" as="geometry" />
        </mxCell>
        <mxCell id="6Q8PuM3xzfXMs_AKLG9W-183" value="" style="whiteSpace=wrap;html=1;strokeWidth=2;fillColor=#CCCCCC;gradientColor=none;fontSize=14;align=center;strokeColor=#999999;" vertex="1" parent="1">
          <mxGeometry x="810" y="350" width="59" height="20" as="geometry" />
        </mxCell>
        <mxCell id="6Q8PuM3xzfXMs_AKLG9W-184" value="" style="whiteSpace=wrap;html=1;strokeWidth=2;fillColor=#CCCCCC;gradientColor=none;fontSize=14;align=center;strokeColor=#999999;" vertex="1" parent="1">
          <mxGeometry x="811" y="330" width="59" height="20" as="geometry" />
        </mxCell>
        <mxCell id="6Q8PuM3xzfXMs_AKLG9W-186" value="" style="whiteSpace=wrap;html=1;strokeWidth=2;fillColor=#CCCCCC;gradientColor=none;fontSize=14;align=center;strokeColor=#999999;" vertex="1" parent="1">
          <mxGeometry x="810" y="370" width="59" height="20" as="geometry" />
        </mxCell>
        <mxCell id="6Q8PuM3xzfXMs_AKLG9W-187" value="" style="whiteSpace=wrap;html=1;strokeWidth=2;fillColor=#CCCCCC;gradientColor=none;fontSize=14;align=center;strokeColor=#999999;" vertex="1" parent="1">
          <mxGeometry x="810" y="390" width="59" height="20" as="geometry" />
        </mxCell>
        <mxCell id="6Q8PuM3xzfXMs_AKLG9W-188" value="" style="whiteSpace=wrap;html=1;strokeWidth=2;fillColor=#CCCCCC;gradientColor=none;fontSize=14;align=center;strokeColor=#999999;" vertex="1" parent="1">
          <mxGeometry x="810" y="410" width="59" height="20" as="geometry" />
        </mxCell>
        <mxCell id="6Q8PuM3xzfXMs_AKLG9W-189" value="" style="whiteSpace=wrap;html=1;strokeWidth=2;fillColor=#CCCCCC;gradientColor=none;fontSize=14;align=center;strokeColor=#999999;" vertex="1" parent="1">
          <mxGeometry x="869" y="530" width="50" height="20" as="geometry" />
        </mxCell>
        <mxCell id="6Q8PuM3xzfXMs_AKLG9W-190" value="" style="whiteSpace=wrap;html=1;strokeWidth=2;fillColor=#CCCCCC;gradientColor=none;fontSize=14;align=center;strokeColor=#999999;" vertex="1" parent="1">
          <mxGeometry x="869" y="550" width="50" height="20" as="geometry" />
        </mxCell>
        <mxCell id="6Q8PuM3xzfXMs_AKLG9W-191" value="" style="whiteSpace=wrap;html=1;strokeWidth=2;fillColor=#CCCCCC;gradientColor=none;fontSize=14;align=center;strokeColor=#999999;" vertex="1" parent="1">
          <mxGeometry x="869" y="570" width="50" height="20" as="geometry" />
        </mxCell>
        <mxCell id="6Q8PuM3xzfXMs_AKLG9W-192" value="" style="whiteSpace=wrap;html=1;strokeWidth=2;fillColor=#CCCCCC;gradientColor=none;fontSize=14;align=center;strokeColor=#999999;" vertex="1" parent="1">
          <mxGeometry x="870" y="590" width="50" height="20" as="geometry" />
        </mxCell>
        <mxCell id="6Q8PuM3xzfXMs_AKLG9W-193" value="" style="whiteSpace=wrap;html=1;strokeWidth=2;fillColor=#CCCCCC;gradientColor=none;fontSize=14;align=center;strokeColor=#999999;" vertex="1" parent="1">
          <mxGeometry x="870" y="590" width="50" height="20" as="geometry" />
        </mxCell>
        <mxCell id="6Q8PuM3xzfXMs_AKLG9W-194" value="" style="whiteSpace=wrap;html=1;strokeWidth=2;fillColor=#CCCCCC;gradientColor=none;fontSize=14;align=center;strokeColor=#999999;" vertex="1" parent="1">
          <mxGeometry x="920" y="610" width="60" height="20" as="geometry" />
        </mxCell>
        <mxCell id="6Q8PuM3xzfXMs_AKLG9W-195" value="" style="whiteSpace=wrap;html=1;strokeWidth=2;fillColor=#CCCCCC;gradientColor=none;fontSize=14;align=center;strokeColor=#999999;" vertex="1" parent="1">
          <mxGeometry x="920" y="630" width="60" height="20" as="geometry" />
        </mxCell>
        <mxCell id="6Q8PuM3xzfXMs_AKLG9W-196" value="" style="whiteSpace=wrap;html=1;strokeWidth=2;fillColor=#CCCCCC;gradientColor=none;fontSize=14;align=center;strokeColor=#999999;" vertex="1" parent="1">
          <mxGeometry x="920" y="650" width="60" height="20" as="geometry" />
        </mxCell>
        <mxCell id="6Q8PuM3xzfXMs_AKLG9W-197" value="" style="whiteSpace=wrap;html=1;strokeWidth=2;fillColor=#CCCCCC;gradientColor=none;fontSize=14;align=center;strokeColor=#999999;" vertex="1" parent="1">
          <mxGeometry x="920" y="670" width="60" height="20" as="geometry" />
        </mxCell>
        <mxCell id="6Q8PuM3xzfXMs_AKLG9W-198" value="" style="whiteSpace=wrap;html=1;strokeWidth=2;fillColor=#CCCCCC;gradientColor=none;fontSize=14;align=center;strokeColor=#999999;" vertex="1" parent="1">
          <mxGeometry x="919" y="690" width="60" height="20" as="geometry" />
        </mxCell>
      </root>
    </mxGraphModel>
  </diagram>
</mxfile>
